<?xml version="1.0" encoding="UTF-8" standalone="no"?>
<!DOCTYPE svg PUBLIC "-//W3C//DTD SVG 1.1//EN" "http://www.w3.org/Graphics/SVG/1.1/DTD/svg11.dtd">
<svg xmlns="http://www.w3.org/2000/svg" xmlns:xlink="http://www.w3.org/1999/xlink" version="1.1" width="1080" height="1080" viewBox="0 0 1080 1080" xml:space="preserve">
	<defs>
	</defs>
	<g transform="matrix(1 0 0 1 540 540)" id="c07c4f7c-eb52-4e30-9f5f-fed1ef7f468b">
		<rect style="stroke: none; stroke-width: 1; stroke-dasharray: none; stroke-linecap: butt; stroke-dashoffset: 0; stroke-linejoin: miter; stroke-miterlimit: 4; fill: rgb(255,255,255); fill-rule: nonzero; opacity: 1; visibility: hidden;" vector-effect="non-scaling-stroke" x="-540" y="-540" rx="0" ry="0" width="1080" height="1080" />
	</g>
	<g transform="matrix(1 0 0 1 540 540)" id="5f23a0d7-09b2-4667-bd2a-c8e24c78967d">
	</g>
	<g transform="matrix(7.3 0 0 7.3 540 540)" id="path5865">
		<path style="stroke: none; stroke-width: 1; stroke-dasharray: none; stroke-linecap: butt; stroke-dashoffset: 0; stroke-linejoin: miter; stroke-miterlimit: 4; fill: rgb(255,0,0); fill-rule: nonzero; opacity: 1;" transform=" translate(-74.05, -959.58)" d="M 72.527478 1027.3356 C 67.735381 1012.5493 60.313567 1000.5864 34.362543 965.81962 C 18.536177 944.6169 12.638368 934.36254 10.707991 924.69211 C 8.363980999999999 912.94954 11.904824 901.75811 20.372885 894.1446 C 26.066798 889.02528 31.981284000000002 886.83026 40.081413999999995 886.83026 C 53.43554399999999 886.83026 64.25518199999999 894.47501 70.72759199999999 908.4837 C 72.58066899999999 912.49444 74.42672699999999 915.4028 74.82994199999999 914.94673 C 75.23315799999999 914.49065 76.297429 912.17867 77.19498899999999 909.80899 C 81.08514 899.53847 89.948792 890.65577 99.194825 887.76189 C 105.46379999999999 885.7997799999999 116.69139 886.96756 122.62916 890.19931 C 139.15706 899.1949099999999 142.761 918.85987 131.86178999999998 940.57728 C 127.57837999999998 949.11225 123.59864999999999 954.9289299999999 110.38932999999999 971.96095 C 91.92355299999998 995.77058 80.79400399999999 1013.8961 76.38770899999999 1027.3356 C 75.48129699999998 1030.1002 74.60848099999998 1032.3622 74.44811699999998 1032.3622 C 74.28775399999998 1032.3622 73.42346599999998 1030.1002 72.52747799999999 1027.3356 z" stroke-linecap="round" />
	</g>
</svg>
